<svg xmlns="http://www.w3.org/2000/svg" xmlns:xlink="http://www.w3.org/1999/xlink" version="1.1" viewBox="207.32 38.4 305.2 641.82">
  <!-- Generator: Adobe Illustrator 29.0.0, SVG Export Plug-In . SVG Version: 2.1.0 Build 186)  -->
  <defs>
    <style>

      .st1 {
        fill: #231f20;
        stroke: #231f20;
        stroke-miterlimit: 10;
      }
    </style>
  </defs>
  <g id="Layer_2">
    <path class="st1" d="M511.99,188.19c-.04-.93-.39-1.83-.97-2.56l-9.67-11.96c-.9-1.11-2.01-2.04-3.27-2.73l-58.94-32.22c-.78-.43-1.65-.67-2.54-.69l-9.55-.31c-.61-.02-1.21-.07-1.81-.16l-30.86-4.34c-.93-.13-1.37-1.32-.67-1.94.06-.05.13-.1.2-.15l.71-.42c.8-.47,1.68-.8,2.6-.96l9.58-1.72c.51-.09,1.03-.16,1.55-.2l11.35-.9c.49-.04.99-.06,1.48-.05l22.98.11c1.04,0,2.07.17,3.06.48l22.27,7c.49.16.96.37,1.4.64l3.15,1.9c.42.26.91.39,1.4.39h3.82c.45,0,.88-.18,1.19-.49l3.26-3.26c.39-.39.85-.7,1.36-.9l7.02-2.85c.68-.28,1.12-.95,1.11-1.68l-.21-10.75c0-.71-.07-1.41-.2-2.11l-8.29-43.42c-.28-1.48-.78-2.92-1.49-4.26l-2.87-5.48c-.66-1.26-1.48-2.42-2.45-3.46l-8.82-9.51c-1.12-1.2-2.47-2.17-3.97-2.83l-17.01-7.48c-.27-.12-.49.25-.25.43l12.73,9.37c.46.34.89.69,1.31,1.07l4.58,4.12c.83.75,1.57,1.58,2.22,2.48l2.54,3.56c.52.73.97,1.52,1.33,2.35l2.04,4.67c.5,1.15.89,2.35,1.15,3.57l.56,2.6c.15.7.28,1.4.38,2.11l1.54,10.38c.16,1.06.24,2.13.24,3.19v13.68c0,.72-.02,1.43-.07,2.15l-.91,13.65c-.06.93-.36,1.84-.86,2.62l-.31.49c-.4.62-1.09,1-1.83,1h-2.86c-.6,0-1.2-.07-1.78-.2l-23.2-5.38c-.67-.15-1.31-.39-1.93-.69l-2.39-1.19c-.51-.26-1.08-.39-1.65-.39h-7.62c-.79,0-1.59.09-2.36.26l-33.99,7.47c-.39.09-.79.13-1.19.13h-.87c-.38,0-.68-.31-.68-.68v-.14c0-.5.25-.96.66-1.23l11.64-7.73c.34-.23.69-.44,1.05-.64l7.2-3.98c.93-.52,1.96-.83,3.03-.93l14.65-1.37c.64-.06,1.29-.08,1.93-.06l5.06.18h.73c.87,0,1.67-.49,2.06-1.27l1.82-3.63c.56-1.12.6-2.43.09-3.58l-10.55-24.22c-.19-.44-.4-.88-.62-1.31l-4.1-7.96c-.7-1.36-1.64-2.57-2.78-3.59l-1.96-1.74c-.85-.75-1.78-1.4-2.77-1.94l-14.23-7.62c-.63-.34-1.33-.51-2.04-.51h-1.5c-.24,0-.34.31-.15.45l15.42,11.57c.51.38.99.81,1.43,1.28l2.22,2.35c.52.55.98,1.14,1.39,1.77l.72,1.12c.54.84.93,1.76,1.17,2.73l5.23,21.91c.15.64.23,1.29.23,1.95v1.62c0,.67-.3,1.3-.83,1.72l-.24.2c-.35.28-.79.44-1.24.46l-18.56.6c-.56.02-1.09.27-1.45.7l-1.95,2.28c-.4.47-.86.88-1.38,1.23l-19.29,13.06c-.39.26-.92-.02-.92-.49v-3.28c0-.13.03-.27.08-.39l.42-.95c.14-.31-.09-.66-.43-.66h-1.5c-.24,0-.46-.09-.89-.48,0,0-3.22-2.97-4.2-3.86-.19-.17-.38-.32-.6-.45l-4.18-2.56c-.19-.12-.41-.18-.63-.18h-1.13l1.19,1.19,2.4,2.4c.18.18.33.37.46.58l2.98,4.73c.23.36.35.77.35,1.19v1.28c0,.52-.19,1.02-.52,1.41l-3.05,3.54c-.35.41-.87.65-1.42.65h-.03c-.54,0-1.05-.23-1.41-.63l-2.74-3.1c-.48-.55-1.18-.86-1.9-.86h-.42c-.74,0-1.44.32-1.91.88l-2.56,3c-.39.46-.96.72-1.56.72h-1.52c-.14,0-.25.11-.25.25,0-.14-.11-.25-.25-.25h-1.52c-.6,0-1.17-.26-1.56-.72l-2.56-3c-.48-.56-1.18-.88-1.91-.88h-.42c-.73,0-1.42.31-1.9.86l-2.74,3.1c-.36.4-.87.63-1.41.63h-.03c-.54,0-1.06-.24-1.42-.65l-3.05-3.54c-.34-.39-.52-.89-.52-1.41v-1.28c0-.42.12-.84.35-1.19l2.98-4.73c.13-.21.29-.41.46-.58l2.4-2.4,1.19-1.19h-1.13c-.22,0-.44.06-.63.18l-4.18,2.56c-.21.13-.41.28-.6.45-.97.89-4.2,3.86-4.2,3.86-.43.39-.65.48-.89.48h-1.5c-.34,0-.57.35-.43.66l.42.95c.05.12.08.25.08.39v3.28c0,.47-.53.75-.92.49l-19.29-13.06c-.51-.35-.97-.76-1.38-1.23l-1.95-2.28c-.36-.43-.89-.68-1.45-.7l-18.56-.6c-.45-.01-.89-.17-1.24-.46l-.24-.2c-.52-.42-.83-1.05-.83-1.72v-1.62c0-.66.08-1.31.23-1.95l5.23-21.91c.23-.97.63-1.89,1.17-2.73l.72-1.12c.41-.63.87-1.23,1.39-1.77l2.22-2.35c.44-.47.92-.89,1.43-1.28l15.42-11.57c.19-.14.09-.45-.15-.45h-1.5c-.71,0-1.42.18-2.04.51l-14.23,7.62c-1,.53-1.93,1.19-2.77,1.94l-1.96,1.74c-1.14,1.02-2.08,2.23-2.78,3.59l-4.1,7.96c-.22.43-.43.87-.62,1.31l-10.55,24.22c-.5,1.15-.47,2.46.09,3.58l1.82,3.63c.39.78,1.19,1.27,2.06,1.27h.73l5.06-.18c.64-.02,1.29,0,1.93.06l14.65,1.37c1.06.1,2.09.42,3.03.93l7.2,3.98c.36.2.71.41,1.05.64l11.64,7.73c.41.27.66.74.66,1.23v.14c0,.38-.31.68-.68.68h-.87c-.4,0-.8-.04-1.19-.13l-33.99-7.47c-.78-.17-1.57-.26-2.36-.26h-7.62c-.57,0-1.14.13-1.65.39l-2.39,1.19c-.61.31-1.26.54-1.93.69l-23.2,5.38c-.58.14-1.18.2-1.78.2h-2.86c-.74,0-1.43-.38-1.83-1l-.31-.49c-.5-.79-.8-1.69-.86-2.62l-.91-13.65c-.05-.72-.07-1.43-.07-2.15v-13.68c0-1.07.08-2.14.24-3.19l1.54-10.38c.11-.71.23-1.41.38-2.11l.56-2.6c.26-1.23.65-2.42,1.15-3.57l2.04-4.67c.36-.83.81-1.61,1.33-2.35l2.54-3.56c.65-.91,1.39-1.74,2.22-2.48l4.58-4.12c.42-.38.86-.74,1.31-1.07l12.73-9.37c.24-.18.02-.55-.25-.43l-17.01,7.48c-1.5.66-2.86,1.62-3.97,2.83l-8.82,9.51c-.97,1.04-1.79,2.21-2.45,3.46l-2.87,5.48c-.7,1.34-1.2,2.77-1.49,4.26l-8.29,43.42c-.13.7-.2,1.4-.2,2.11l-.21,10.75c-.01.74.43,1.4,1.11,1.68l7.02,2.85c.51.21.97.51,1.36.9l3.26,3.26c.32.32.75.49,1.19.49h3.82c.5,0,.98-.14,1.4-.39l3.15-1.9c.44-.27.91-.48,1.4-.64l22.27-7c.99-.31,2.02-.47,3.06-.48l22.98-.11c.5,0,.99.02,1.48.05l11.35.9c.52.04,1.04.11,1.55.2l9.58,1.72c.92.16,1.8.49,2.6.96l.71.42c.07.04.14.09.2.15.7.62.26,1.8-.67,1.94l-30.86,4.34c-.6.08-1.2.14-1.81.16l-9.55.31c-.89.03-1.76.27-2.54.69l-58.94,32.22c-1.26.69-2.37,1.61-3.27,2.73l-9.67,11.96c-.59.73-.93,1.62-.97,2.56l-.11,2.3c-.05.97.57,1.85,1.51,2.13l1.52.46c.76.23,1.45.63,2.03,1.16,4.99,4.53,10.3,8.57,15.28,13.1,3.92,3.56,7.55,7.3,11.43,10.88.42.39.81.82,1.14,1.29,1.41,2.01,2.81,4.18,4.22,6.21.45.65.82,1.35,1.08,2.1l4.38,11.41c.21.55.4,1.1.56,1.66l3.21,10.86c.12.42.23.84.33,1.26l3.82,16.35c.1.41.18.82.25,1.24,0,0,3.7,20.61,4.77,27.5,1.15,7.42,3.05,22.33,3.85,29.8,1,9.37,2.39,28.16,3.02,37.56.77,11.39,1.86,34.19,2.25,45.59.52,15.44,1.38,56.73,1.65,69.84,0,.31.46.33.5.02.45-4.4,1.15-11.2,1.45-14.16.18-1.79.64-6.29.85-8.4.08-.75.12-1.5.12-2.25,0,0,1.28-74.91.95-99.88-.1-7.49-.68-22.47-1.07-29.95-.4-7.87-1.3-23.61-1.86-31.47-.41-5.68-1.25-17.05-1.86-22.72-.72-6.69-3.23-25.17-3.8-29.33-.08-.56-.17-1.11-.3-1.66l-4.85-22.07c-.25-1.12-.37-2.26-.37-3.4v-3.24c0-.76-.3-1.49-.84-2.02l-.29-.29c-.35-.35-.82-.58-1.31-.63l-4.49-.51c-.83-.09-1.64-.33-2.39-.71l-2.92-1.46c-.53-.26-1.04-.57-1.52-.9l-13.3-9.26c-.45-.31-.87-.67-1.24-1.07l-1.4-1.5c-.55-.58-.98-1.26-1.29-1.99l-.55-.92c-.39-.64-.57-1.39-.52-2.14l.03-.51c.04-.61.26-1.18.64-1.66.78-.98,1.98-2.39,3.56-3.96,2.51-2.49,4.84-4.24,10.5-7.99,2.74-1.81,6.13-4.01,10.07-6.47,8.18-5.07,16.35-10.15,24.53-15.22.65-.4,1.33-.76,2.03-1.08,0,0,3.25-1.49,4.35-1.95,1.22-.52,4.32-1.74,5.76-2.31.5-.2,1.01-.37,1.54-.5l6.52-1.74c.72-.19,1.45-.34,2.19-.43l8.04-1.06c.48-.06.96-.11,1.45-.13l11.37-.49c.5-.02,1,.03,1.49.15l1.33.31c.29.07.51.33.51.63v.56c.02.35-.12.69-.38.93l-5.2,4.71c-.23.21-.48.4-.75.57l-6.59,4.19c-.18.1-.36.21-.54.31l-9.56,5.01-6.26,3.13c-.47.23-.97.4-1.48.5l-3.23.62c-1.04.2-1.93.85-2.43,1.79l-6.25,11.63c-.49.91-.59,1.97-.29,2.96,0,0,10.68,34.25,13.92,45.76,2.06,7.32,5.9,22.05,7.61,29.46.8,3.48,2.33,10.47,2.95,13.99.73,4.22,1.91,12.69,2.45,16.94.39,3.07,1.19,9.2,1.47,12.27.59,6.37,1.62,19.02,2.02,25.37.59,9.42,1.51,28.28,1.9,37.72.41,9.69,1.14,29.09,1.47,38.78.39,11.38,1.22,34.12,1.49,45.5.36,15.38.72,46.16.93,61.54.21,14.92.74,44.76.93,59.68.14,10.79.27,32.37.4,43.16.2,17.02,1.07,68.07,1.07,68.07,0,0,2.26-61.24,2.8-81.66.57-21.73,1.25-65.2,1.56-86.94.22-15.13.72-45.38.82-60.51.06-8.48.1-25.43,0-33.9-.25-21.79-.94-65.39-1.79-87.17-.18-4.55-.63-13.63-1-18.17-.52-6.4-1.87-19.17-2.6-25.56-.77-6.79-2.32-20.37-3.19-27.15-.89-6.88-3.6-25.79-4.25-30.35-.1-.67-.14-1.34-.14-2.01v-9.54c0-.66-.23-1.31-.65-1.82l-2.49-3.05c-.3-.37-.57-.76-.81-1.17l-4.43-7.5c-.26-.44-.5-.91-.7-1.38l-2.85-6.69c-.26-.61-.46-1.23-.61-1.88l-.61-2.65c-.11-.49-.19-.98-.22-1.48l-.43-6.63c-.05-.79.13-1.57.53-2.25l.46-.8c.4-.7.89-1.34,1.45-1.92l2.64-2.71c.43-.44.9-.85,1.4-1.21l21.45-15.53c.3-.21.74-.49,1.28-.76.86-.42,1.73-.86,2.83-.87.5,0,2.17-.02,3.02,1.21.53.77.47,1.64.43,2-.14.93-.43,2.07-1.03,3.26-.26.51-.49.86-.53.93-.85,1.33-4.39,6.98-9.33,14.86-.25.4-.41.85-.43,1.32-.03.56-.02,1.22-.05,1.78-.03.62.03,1.23.16,1.83l2.08,9.94,2.07,10.05s0,.01,0,.02c0,0,4.85,17.48,6.57,23.28,1.67,5.64,5.13,16.89,6.96,22.48,0,0,0,0,0,.01,0,0,1.47,4.03,1.99,5.37.84,2.16,3.48,8.74,4.03,10.1.06.15.21.25.37.25h.75c.22,0,.4-.16.43-.38l1.06-9.82c.02-.12.12-.21.25-.21h7.04c.14,0,.25-.11.25-.25,0,.14.11.25.25.25h7.04c.12,0,.23.09.25.21l1.06,9.82c.02.22.21.38.43.38h.75c.16,0,.31-.1.37-.25.55-1.36,3.19-7.94,4.03-10.1.52-1.33,1.99-5.37,1.99-5.37,0,0,0,0,0-.01,1.83-5.59,5.29-16.84,6.96-22.48,1.72-5.8,6.57-23.28,6.57-23.28,0,0,0-.01,0-.02.69-3.35,1.38-6.7,2.07-10.05l2.08-9.94c.13-.6.19-1.22.16-1.83-.03-.56-.02-1.22-.05-1.78-.02-.47-.18-.92-.43-1.32-4.94-7.89-8.48-13.54-9.33-14.86-.04-.06-.27-.42-.53-.93-.6-1.19-.89-2.33-1.03-3.26-.04-.36-.1-1.23.43-2,.85-1.23,2.52-1.21,3.02-1.21,1.1.01,1.98.44,2.83.87.55.27.98.55,1.28.76l21.45,15.53c.5.36.97.77,1.4,1.21l2.64,2.71c.56.58,1.05,1.22,1.45,1.92l.46.8c.39.68.58,1.47.53,2.25l-.43,6.63c-.03.5-.11.99-.22,1.48l-.61,2.65c-.15.64-.35,1.27-.61,1.88l-2.85,6.69c-.2.47-.44.94-.7,1.38l-4.43,7.5c-.24.41-.51.8-.81,1.17l-2.49,3.05c-.42.51-.65,1.16-.65,1.82v9.54c0,.67-.05,1.35-.14,2.01-.65,4.56-3.36,23.47-4.25,30.35-.88,6.78-2.43,20.36-3.19,27.15-.72,6.38-2.08,19.15-2.6,25.56-.37,4.53-.82,13.62-1,18.17-.86,21.78-1.54,65.37-1.79,87.17-.1,8.48-.06,25.43,0,33.9.1,15.13.6,45.38.82,60.51.31,21.74.99,65.21,1.56,86.94.53,20.42,2.8,81.66,2.8,81.66,0,0,.86-51.05,1.07-68.07.13-10.79.26-32.37.4-43.16.19-14.92.72-44.76.93-59.68.21-15.39.57-46.16.93-61.54.27-11.38,1.1-34.13,1.49-45.5.34-9.7,1.06-29.09,1.47-38.78.4-9.43,1.31-28.29,1.9-37.72.4-6.35,1.44-19,2.02-25.37.28-3.08,1.08-9.21,1.47-12.27.54-4.24,1.72-12.72,2.45-16.94.61-3.52,2.14-10.51,2.95-13.99,1.71-7.41,5.55-22.13,7.61-29.46,3.24-11.51,13.92-45.76,13.92-45.76.3-.98.19-2.05-.29-2.96l-6.25-11.63c-.5-.93-1.39-1.59-2.43-1.79l-3.23-.62c-.51-.1-1.01-.27-1.48-.5l-6.26-3.13-9.56-5.01c-.18-.1-.36-.21-.54-.31l-6.59-4.19c-.26-.17-.52-.36-.75-.57l-5.2-4.71c-.26-.24-.41-.57-.4-.93v-.56c.02-.3.23-.56.53-.63l1.33-.31c.49-.12.99-.17,1.49-.15l11.37.49c.48.02.97.06,1.45.13l8.04,1.06c.74.1,1.47.24,2.19.43l6.52,1.74c.52.14,1.03.31,1.54.5,1.44.57,4.54,1.79,5.76,2.31,1.1.47,4.35,1.95,4.35,1.95.7.31,1.38.67,2.03,1.08,8.18,5.07,16.35,10.15,24.53,15.22,3.95,2.45,7.34,4.65,10.07,6.47,5.66,3.75,8,5.5,10.5,7.99,1.58,1.57,2.78,2.99,3.56,3.96.38.48.6,1.05.64,1.66l.03.51c.05.75-.13,1.5-.52,2.14l-.55.92c-.31.73-.75,1.41-1.29,1.99l-1.4,1.5c-.38.4-.79.76-1.24,1.07l-13.3,9.26c-.48.34-.99.64-1.52.9l-2.92,1.46c-.75.37-1.56.61-2.39.71l-4.49.51c-.5.06-.96.28-1.31.63l-.29.29c-.54.54-.84,1.27-.84,2.02v3.24c0,1.14-.12,2.28-.37,3.4l-4.85,22.07c-.12.55-.22,1.1-.3,1.66-.57,4.16-3.08,22.63-3.8,29.33-.61,5.67-1.45,17.03-1.86,22.72-.57,7.86-1.46,23.6-1.86,31.47-.38,7.48-.97,22.46-1.07,29.95-.33,24.97.95,99.88.95,99.88,0,.75.05,1.5.12,2.25.21,2.11.67,6.61.85,8.4.3,2.96,1,9.76,1.45,14.16.03.31.49.29.5-.02.27-13.1,1.13-54.4,1.65-69.84.38-11.4,1.48-34.2,2.25-45.59.63-9.4,2.02-28.19,3.02-37.56.8-7.47,2.7-22.37,3.85-29.8,1.07-6.9,4.77-27.5,4.77-27.5.07-.42.16-.83.25-1.24l3.82-16.35c.1-.42.21-.84.33-1.26l3.21-10.86c.17-.56.35-1.11.56-1.66l4.38-11.41c.27-.75.63-1.44,1.08-2.1,1.41-2.03,2.81-4.19,4.22-6.21.33-.47.71-.9,1.14-1.29,3.89-3.58,7.52-7.32,11.43-10.88,4.99-4.53,10.29-8.57,15.28-13.1.58-.53,1.28-.93,2.03-1.16l1.52-.46c.93-.28,1.55-1.16,1.51-2.13l-.11-2.3Z"/>
  </g>
</svg>