<?xml version="1.0" standalone="no"?><!DOCTYPE svg PUBLIC "-//W3C//DTD SVG 1.1//EN" "http://www.w3.org/Graphics/SVG/1.1/DTD/svg11.dtd"><svg t="1750863493845" class="icon" viewBox="0 0 1025 1024" version="1.1" xmlns="http://www.w3.org/2000/svg" p-id="8812" xmlns:xlink="http://www.w3.org/1999/xlink" width="200.1953125" height="200"><path d="M489.012245 6.060408c-41.517279 2.786395-66.45551 6.478367-99.892245 14.907211C285.396463 47.229388 192.818503 105.743673 123.855238 188.778231 63.738776 261.15483 24.171973 352.548571 12.260136 446.868027c-4.527891 35.59619-5.08517 78.019048-1.462857 113.893878 13.444354 132.493061 78.297687 253.840544 181.185306 339.034558 45.348571 37.546667 100.449524 68.405986 156.386395 87.632108 69.450884 23.823673 142.802721 32.391837 215.527619 25.077551 114.033197-11.563537 220.891429-61.57932 302.254149-141.688163 47.020408-46.32381 82.546939-97.52381 108.599728-156.456054 29.884082-67.779048 44.164354-138.553469 42.771157-212.810885-0.626939-33.645714-3.413333-59.698503-9.613062-90.906122-24.589932-122.601361-94.319456-232.037007-195.674557-306.99102C734.145306 45.97551 639.82585 12.120816 540.908844 6.269388c-10.657959-0.626939-43.955374-0.766259-51.896599-0.20898z m57.121088 13.514014c93.901497 5.851429 185.434558 39.775782 261.781769 97.10585 108.460408 81.293061 178.329252 202.849524 193.724082 336.805442 2.368435 20.61932 3.065034 33.576054 3.065034 56.772789s-0.696599 36.223129-3.065034 56.77279c-16.579048 143.22068-94.807075 271.25551-215.04 352.060952-94.737415 63.599456-209.467211 92.16-323.361089 80.526803-60.325442-6.199728-118.00381-22.987755-171.014966-49.806803-82.686259-41.795918-150.952925-104.698776-199.087891-183.414422C-1.880816 611.125986-2.786395 414.197551 90.766803 258.089796 155.132517 150.674286 258.577415 71.053061 377.626122 37.407347 433.354014 21.594558 487.340408 15.882449 546.133333 19.574422z" fill="#1e5396" p-id="8813"></path><path d="M558.741769 51.478639c-1.671837 1.671837-2.856054 3.622313-3.134694 5.15483-0.278639 1.532517-1.184218 3.065034-2.368436 3.900953-3.413333 2.577415-3.622313 2.925714-3.622312 5.294149 0 1.323537 0.13932 2.438095 0.348299 2.438096s2.507755-1.602177 5.01551-3.482994c2.577415-1.950476 5.08517-3.343673 5.712109-3.204353 0.626939 0.20898 3.413333 0.557279 6.199728 0.835918 4.667211 0.417959 5.22449 0.348299 6.757007-1.114558 2.159456-2.020136 2.925714-5.781769 1.671836-8.150204-1.323537-2.438095-5.781769-4.388571-10.17034-4.388571-3.343673 0-3.970612 0.278639-6.408707 2.716734zM431.264218 52.871837c-3.622313 1.253878-6.548027 2.786395-7.801905 4.040272l-1.950476 1.950476 6.339047 5.572789c7.732245 6.896327 8.150204 7.592925 5.990749 9.891701-2.507755 2.716735-6.478367 4.388571-11.424218 4.87619-5.29415 0.487619-6.130068-0.06966-5.433469-4.109932 0.975238-6.269388-6.199728-4.040272-11.911837 3.691973-4.388571 5.990748-5.642449 9.682721-4.597551 13.305034 1.184218 3.970612 4.388571 6.826667 7.523265 6.826667 2.577415 0 4.736871-1.811156 9.752381-8.150204 1.253878-1.532517 3.065034-3.065034 4.040272-3.274014 2.368435-0.626939 11.493878-5.15483 16.579048-8.289524 2.229116-1.323537 6.478367-3.343673 9.404081-4.388571 2.925714-1.044898 6.757007-2.438095 8.428844-3.134694 1.671837-0.766259 3.413333-1.323537 3.900952-1.323537 2.856054 0 0.975238 6.269388-2.368435 7.941224-1.114558 0.626939-3.413333 1.114558-4.94585 1.114558-4.318912 0-6.687347 2.647075-7.244626 8.080544-0.278639 2.229116-0.766259 5.29415-1.184218 6.687347-1.044898 3.900952-5.433469 8.986122-11.145578 12.817415-2.856054 1.880816-5.36381 3.691973-5.712109 4.109932-1.114558 1.462857 0.487619 4.388571 5.15483 9.195102 4.318912 4.388571 4.806531 5.22449 4.109932 6.408708-1.184218 2.229116-4.388571 3.552653-10.657959 4.388571-3.134694 0.417959-6.548027 1.044898-7.523266 1.393197-3.831293 1.393197-5.08517 7.941224-2.020136 10.44898 2.159456 1.741497 4.040272 1.393197 9.334422-1.811157 7.871565-4.736871 21.733878-8.359184 35.73551-9.404081 10.10068-0.696599 12.887075-2.298776 11.702858-6.826667-0.557279-2.229116-5.01551-6.478367-6.826667-6.478367-0.766259 0-5.08517 0.975238-9.613061 2.159455-4.458231 1.253878-8.707483 2.020136-9.404082 1.741497-0.975238-0.348299-1.114558-1.044898-0.766259-4.109932 0.278639-2.368435 0.835918-3.831293 1.671837-4.318911 0.626939-0.417959 2.716735-2.089796 4.527891-3.761633 3.622313-3.274014 4.318912-5.921088 2.229116-8.080544-1.184218-1.184218-1.393197-1.184218-8.428844 1.393197-3.622313 1.253878-4.527891 1.393197-5.154829 0.626939-1.253878-1.462857 5.08517-8.080544 11.006258-11.424218 6.269388-3.622313 6.757007-4.179592 6.269388-7.662585-0.20898-1.532517 0-3.204354 0.487619-3.831293 0.696599-0.905578 8.916463-2.786395 18.599184-4.179591 3.482993-0.487619 6.199728-2.786395 6.199727-5.08517 0-2.159456-6.548027-8.916463-9.334421-9.613062-1.114558-0.278639-5.781769 0.766259-12.887075 2.786395-6.130068 1.741497-11.633197 3.204354-12.190476 3.204354-1.602177 0-1.811156-1.880816-0.3483-3.691973 1.602177-2.089796 1.671837-4.040272 0.3483-6.617687-2.159456-4.109932-6.965986-7.174966-11.215238-7.105306-0.766259 0-4.040272 0.905578-7.244626 2.020136zM594.825578 64.714014c-1.393197 1.393197-2.020136 2.716735-2.020136 4.249251 0 4.109932 6.130068 8.428844 11.842177 8.289524 2.229116 0 8.359184-7.035646 8.359184-9.543401 0-2.856054-1.811156-4.318912-4.179592-3.482993-1.462857 0.487619-3.134694 0.348299-6.269388-0.41796-5.503129-1.462857-5.36381-1.462857-7.732245 0.905579zM560.343946 72.376599c-1.253878 0.766259-2.716735 2.089796-3.343674 2.995374-1.253878 1.741497-1.253878 1.741497 4.667211 2.995374 1.671837 0.348299 1.880816 0.696599 1.880816 3.204354 0 1.532517-0.348299 3.413333-0.696598 4.179592-0.905578 1.602177-2.995374 1.741497-4.179592 0.278639-0.696599-0.835918-1.671837-0.975238-4.040272-0.626939l-3.134694 0.487619 0.557279-2.716734c0.975238-4.94585 0.835918-8.777143-0.487619-9.613062-1.880816-1.184218-4.109932 1.462857-4.458232 5.22449-0.626939 7.174966-3.274014 18.808163-4.597551 20.48-1.671837 2.159456-4.318912 2.229116-8.498503 0.27864-3.552653-1.811156-4.806531-1.462857-6.687347 1.602176-2.159456 3.552653-3.065034 7.453605-2.159456 9.473742 0.696599 1.393197 1.253878 1.602177 3.761633 1.532517 6.687347-0.417959 7.314286 0.557279 3.622313 5.572789-2.577415 3.482993-3.761633 7.801905-2.856055 10.17034 0.766259 1.950476 3.552653-1.323537 7.105307-8.150204 3.691973-7.174966 4.94585-8.428844 10.379319-10.30966 4.667211-1.671837 7.314286-1.880816 8.568164-0.626939 1.044898 1.044898 1.114558 8.777143 0.139319 11.354558-0.905578 2.368435-3.065034 2.089796-3.343673-0.487619-0.13932-1.044898-0.696599-2.229116-1.323538-2.716734-0.905578-0.766259-1.253878-0.696599-2.089796 0.417959-1.253878 1.741497-0.835918 6.548027 1.184218 13.026394 1.532517 5.01551 3.343673 7.174966 5.43347 6.548028 2.298776-0.766259 6.408707-18.041905 6.408707-26.888708 0-4.179592 0.20898-5.01551 2.089796-7.314286 2.577415-3.204354 2.647075-5.01551 0.348299-5.921088-2.298776-0.835918-2.229116-2.159456 0.3483-5.712109 1.184218-1.602177 2.298776-4.109932 2.577415-5.642449 0.20898-1.462857 1.114558-3.552653 2.020136-4.667211 1.950476-2.298776 2.089796-3.482993 0.626938-6.269388-1.880816-3.691973-5.921088-4.527891-9.82204-2.159455z m-7.244626 20.20136c0.766259 2.995374-0.06966 6.687347-1.811157 7.314286-1.532517 0.557279-3.134694-0.348299-2.786394-1.602177 0.13932-0.626939 0.696599-2.786395 1.114558-4.806531 0.975238-4.318912 2.438095-4.736871 3.482993-0.905578zM610.220408 79.969524c-5.503129 2.298776-6.826667 2.507755-20.131701 3.691973-14.767891 1.253878-15.39483 1.393197-15.394829 4.597551 0 1.671837 0.626939 2.229116 4.179591 3.482993 1.950476 0.696599 2.577415 0.696599 3.482994-0.13932 0.696599-0.626939 8.219864-2.229116 19.435102-4.040272 12.260136-2.020136 18.529524-3.343673 18.947483-4.040272 0.696599-1.114558 0.20898-3.970612-0.905579-5.29415-1.114558-1.323537-3.134694-0.975238-9.613061 1.741497z" fill="#1e5396" p-id="8814"></path><path d="M426.527347 89.652245c-2.786395 1.114558-1.114558 8.846803 2.298775 11.145578 1.532517 0.975238 1.811156 0.975238 3.413334-0.06966 1.393197-0.905578 6.617687-9.752381 6.617687-11.215238 0-0.696599-2.507755-0.278639-3.761633 0.696599-0.766259 0.557279-2.020136 1.044898-2.856054 1.044898-0.835918 0-2.089796-0.487619-2.856055-1.044898-1.393197-1.044898-1.602177-1.114558-2.856054-0.557279zM600.468027 95.225034c-0.557279 0.278639-2.020136 1.184218-3.204354 2.089796-2.786395 2.089796-6.130068 2.020136-9.682721-0.13932-3.343673-2.089796-4.597551-2.159456-6.199728-0.417959-0.975238 1.114558-1.044898 1.880816-0.487619 5.433469 1.532517 9.613061-4.179592 19.365442-12.747755 21.664218-4.806531 1.253878-3.970612 4.318912 1.184218 4.318912 6.060408 0 11.702857-5.22449 16.579048-15.32517 1.602177-3.274014 3.552653-6.617687 4.318911-7.523266 1.462857-1.532517 4.249252-2.089796 4.945851-0.905578 0.20898 0.348299-0.13932 4.040272-0.905579 8.289524-1.950476 11.493878-0.905578 15.882449 5.36381 22.569796 6.896327 7.383946 12.817415 8.916463 17.275646 4.458231l2.368435-2.368435v-6.896327c0-8.498503-0.696599-9.891701-3.343673-6.478367-4.597551 5.851429-5.433469 6.548027-8.080544 6.548027-4.806531 0-8.777143-4.806531-8.777143-10.727619 0-1.741497 0.487619-5.990748 1.044898-9.404082 0.557279-3.482993 1.044898-6.478367 1.044898-6.757006 0-0.278639 1.253878-1.323537 2.786394-2.298776 3.482993-2.159456 4.040272-3.482993 2.438096-5.22449-1.184218-1.323537-3.761633-1.741497-5.921089-0.905578zM305.040544 101.215782c-5.01551 2.577415-8.359184 6.617687-8.498503 10.30966-0.13932 2.229116 0.06966 2.438095 2.995374 3.413334 4.736871 1.602177 6.269388 2.716735 6.269388 4.249251 0 2.298776-2.647075 5.433469-6.687347 8.010885-3.691973 2.368435-4.179592 3.204354-3.343674 5.433469 1.462857 3.761633 9.961361-2.647075 15.60381-11.702857 1.462857-2.438095 2.856054-3.134694 8.707483-4.527891 5.990748-1.393197 11.493878-6.199728 11.493877-10.031021 0-1.741497-0.975238-1.462857-4.527891 1.253878-6.269388 4.736871-11.911837 4.94585-9.195102 0.278639 1.950476-3.413333 1.602177-5.990748-1.044898-7.592925-3.343673-2.020136-6.687347-1.741497-11.772517 0.905578zM706.838639 108.530068c-1.741497 1.880816-1.462857 4.597551 0.766259 7.174966 1.671837 2.089796 1.880816 2.856054 2.089796 8.846803 0.20898 5.433469 0.06966 6.687347-0.975238 7.871564-1.741497 1.950476-4.87619 1.671837-10.657959-1.114557-6.339048-3.065034-7.941224-3.065034-10.936599-0.06966-2.856054 2.856054-2.995374 5.15483-0.557279 7.453605 2.507755 2.298776 3.761633 5.01551 3.761633 7.941225 0 2.716735-1.323537 4.388571-5.015511 6.408707-3.552653 1.950476-13.305034 1.671837-20.20136-0.626939-4.736871-1.602177-5.503129-1.671837-6.826667-0.766258-1.741497 1.253878-1.880816 4.458231-0.139319 5.921088 3.343673 2.995374 14.628571 6.826667 20.1317 6.826667 4.527891 0 9.822041-1.323537 15.46449-3.900952 6.060408-2.786395 7.383946-2.925714 8.707483-0.835919 0.557279 0.905578 3.552653 8.359184 6.687347 16.579048s6.548027 16.509388 7.523265 18.320544c4.388571 8.080544 15.046531 14.419592 26.122449 15.46449 2.368435 0.20898 5.01551 0.557279 5.921089 0.766258 2.647075 0.557279 1.741497-1.532517-1.880817-4.179592-7.035646-5.15483-13.792653-14.001633-20.27102-26.331428-3.761633-7.244626-11.145578-25.49551-11.145578-27.654966 0-0.766259 0.835918-2.020136 1.811156-2.786395 2.438095-1.880816 6.339048-1.880816 13.653334 0 5.642449 1.462857 10.44898 1.462857 11.842176 0.06966 1.114558-1.114558-0.696599-5.503129-2.786394-7.035646-1.044898-0.696599-3.691973-1.811156-5.851429-2.438095-4.318912-1.253878-9.613061-5.503129-9.613061-7.662585 0-0.626939 0.766259-1.950476 1.741497-2.856055 1.811156-1.880816 5.15483-2.298776 9.195102-1.114558 3.204354 0.905578 7.592925-0.278639 11.911836-3.204353 3.274014-2.229116 3.622313-2.716735 3.622313-5.08517 0-3.831293-1.532517-4.806531-9.473741-5.990749-7.592925-1.114558-15.39483-2.786395-25.007891-5.503129-7.523265-2.089796-8.150204-2.089796-9.613062-0.487619zM269.722993 109.853605c-1.602177 0.975238-3.970612 1.811156-5.15483 1.950477-3.622313 0.278639-4.179592 1.811156-3.622313 9.543401l0.487619 6.826667-2.925714 3.134694c-1.532517 1.671837-2.856054 3.622313-2.856054 4.249251 0 0.626939 1.741497 2.716735 3.831292 4.667211 5.22449 4.806531 6.478367 7.105306 7.592925 13.862313 0.557279 3.204354 1.462857 7.035646 2.089796 8.498503 1.671837 3.970612 0.975238 5.15483-4.80653 7.801905-5.851429 2.577415-7.174966 4.249252-7.732245 9.055783-1.044898 9.264762 4.318912 9.682721 10.37932 0.766258 0.696599-1.044898 1.811156-1.880816 2.577414-1.880816 1.532517 0 3.482993 2.507755 3.482994 4.527891 0 2.716735 3.274014 8.568163 5.503129 9.682721 1.393197 0.766259 2.229116 0.905578 2.507755 0.348299 0.278639-0.417959 0.13932-4.87619-0.348299-9.96136l-0.905579-9.195102 2.507756-3.900953c1.393197-2.089796 2.716735-4.667211 2.925714-5.642449 0.557279-2.159456 2.229116-3.761633 3.065034-2.856054 0.348299 0.348299 1.602177 3.413333 2.786394 6.826667 2.507755 7.105306 2.159456 8.986122-1.253877 5.712108-1.323537-1.253878-2.507755-1.811156-3.204354-1.532517-1.741497 0.626939-0.696599 3.065034 2.786395 6.687347 1.671837 1.741497 3.691973 4.527891 4.388571 6.269388 1.741497 4.040272 3.622313 5.712109 6.199728 5.433469 1.602177-0.13932 2.159456-0.766259 2.995374-3.134693 0.905578-2.716735 0.835918-3.343673-0.626939-8.359184-0.835918-2.995374-2.786395-8.289524-4.249251-11.772517-1.462857-3.482993-3.204354-8.498503-3.831293-11.145578-0.626939-2.647075-1.532517-5.433469-2.020136-6.199728-1.184218-1.880816-2.995374-7.592925-3.552653-11.493878-0.626939-4.736871-2.786395-8.846803-5.363809-10.448979-2.925714-1.811156-8.289524-1.880816-9.752381-0.20898-1.950476 2.229116-3.413333 5.781769-3.831293 9.334422-0.20898 1.880816-0.557279 3.413333-0.766258 3.413333-0.975238 0-7.801905-5.712109-7.801905-6.548027 0-1.184218 1.602177-2.507755 6.339047-5.15483 4.806531-2.716735 10.10068-7.314286 11.424218-9.961361 1.323537-2.507755 1.323537-5.712109 0-8.219863-1.741497-3.413333-4.736871-3.761633-9.264762-0.975239z m8.707483 29.605443c1.950476 2.159456 5.781769 7.732245 5.781769 8.568163 0 0.766259-2.856054 0.278639-5.22449-0.835918-3.204354-1.532517-3.831293-0.696599-3.343673 4.318911 0.557279 5.08517-0.766259 5.36381-2.298776 0.487619-1.741497-5.433469-1.741497-11.354558 0-13.305034 1.811156-1.950476 2.577415-1.880816 5.08517 0.766259zM319.947755 124.830476c-0.766259 0.905578-1.741497 2.577415-2.229116 3.831293-1.044898 2.507755-6.408707 7.871565-9.682721 9.543401-1.950476 1.044898-2.089796 1.253878-1.462857 3.343674 0.905578 3.134694 0.766259 6.757007-0.348299 14.489251-0.696599 4.458231-0.835918 8.916463-0.557279 13.583674 0.417959 6.408707 0.626939 6.965986 1.950476 7.174966 1.044898 0.13932 1.950476-0.417959 2.925714-1.741497 2.786395-3.970612 3.274014-6.965986 3.274014-19.853061 0-10.588299 0.13932-12.538776 1.184218-13.514014 0.766259-0.766259 1.741497-1.044898 2.856054-0.696598 1.393197 0.348299 2.507755 1.950476 5.36381 7.871564 4.249252 9.055782 6.060408 11.493878 10.10068 13.862313 6.548027 3.831293 16.997007 5.01551 20.34068 2.368436 0.975238-0.766259 2.438095-1.393197 3.274014-1.393198 1.950476 0 4.458231-2.298776 5.01551-4.597551 0.278639-0.975238-0.06966-3.065034-0.766258-4.87619-1.950476-5.15483-12.190476-16.997007-12.190477-14.140953 0 0.417959 0.487619 2.647075 1.114558 4.945851 1.671837 6.617687 0 10.30966-4.736871 10.30966-2.786395 0-9.334422-2.438095-11.981496-4.388572-5.22449-4.040272-8.289524-14.558912-6.199728-21.594558 1.044898-3.482993 0.975238-3.622313-0.487619-4.80653-2.089796-1.741497-5.01551-1.602177-6.757007 0.278639zM491.798639 170.039728c-67.639728 4.249252-133.18966 28.978503-187.454693 70.704762-15.18585 11.702857-37.407347 32.809796-50.085443 47.647347-37.546667 43.816054-63.738776 97.45415-75.232653 154.017959-17.275646 85.194014-1.323537 173.94068 44.721633 248.058775 13.374694 21.594558 27.515646 39.427483 46.393469 58.653606 85.054694 86.447891 207.725714 120.999184 325.799184 91.742041 71.81932-17.832925 136.811973-59.559184 183.135782-117.516191 108.599728-135.976054 97.732789-331.371973-25.147211-454.112653-69.241905-69.172245-164.745578-105.256054-262.130068-99.195646z m56.63347 13.444354c27.376327 3.065034 53.429116 9.195102 78.088707 18.320544 110.132245 40.681361 190.659048 137.299592 210.372789 252.377687 3.622313 20.967619 4.249252 29.257143 4.249252 56.07619s-0.626939 35.108571-4.249252 56.076191c-11.981497 69.799184-47.786667 136.185034-99.195646 183.762721-53.289796 49.319184-116.540952 78.506667-188.429932 86.86585-21.037279 2.438095-55.867211 2.159456-78.367347-0.766258-117.93415-15.046531-219.637551-94.249796-263.523265-205.1483-22.430476-56.703129-28.560544-119.536327-17.484626-180.349387 22.082177-121.904762 113.406259-222.493605 232.733606-256.3483 19.435102-5.503129 41.02966-9.613061 58.723265-11.145578 4.806531-0.348299 9.822041-0.835918 11.145578-0.975238 6.130068-0.696599 46.950748 0.20898 55.936871 1.253878z" fill="#1e5396" p-id="8815"></path><path d="M463.098776 270.628571c-1.393197 2.298776-10.30966 52.244898-10.30966 57.887347v2.159456l-8.498504 0.835919c-28.630204 2.856054-57.817687 7.941224-55.867211 9.82204 1.323537 1.253878 11.354558 4.318912 19.295783 5.921089 10.518639 2.089796 22.709116 3.622313 33.576054 4.179592 12.260136 0.626939 11.215238 0 11.702857 7.105306 0.626939 8.428844 2.298776 20.967619 3.900953 28.839183 0.696599 3.622313 1.114558 6.757007 0.835918 6.965987-0.20898 0.278639-13.862313 6.826667-30.232381 14.628571-29.953741 14.210612-31.277279 15.046531-24.938231 15.185851 3.831293 0.06966 18.808163 3.343673 25.913469 5.642449 7.801905 2.507755 22.639456 9.613061 21.803538 10.379319-0.348299 0.348299-9.822041 4.736871-21.037279 9.891701-14.698231 6.687347-20.062041 9.473741-19.156463 9.822041 0.696599 0.278639 15.673469 2.507755 33.297415 5.08517 17.623946 2.507755 32.182857 4.94585 32.461497 5.363809 2.577415 4.109932 3.274014 25.49551 1.114557 35.038912-0.626939 3.065034-15.743129 51.757279-33.576054 108.251428-17.832925 56.49415-32.252517 102.817959-32.113197 102.957279 0.13932 0.13932 19.922721-30.371701 43.955374-67.848707 24.032653-37.477007 44.094694-68.545306 44.582313-69.032925 0.487619-0.557279-10.24 34.690612-23.754014 78.297687-13.514014 43.607075-24.520272 79.412245-24.380952 79.481905 0.13932 0.13932 64.226395-96.060952 142.454422-213.716463s142.175782-214.064762 142.036462-214.204082c-0.13932-0.13932-19.992381 8.777143-44.164354 19.853062-24.102313 11.075918-43.885714 20.062041-44.025034 19.922721-0.13932-0.06966 9.055782-14.698231 20.48-32.322177 11.354558-17.693605 20.54966-32.322177 20.410341-32.391837-0.13932-0.13932-50.085442 23.545034-111.037824 52.593197-60.882721 29.048163-110.828844 52.593197-110.968163 52.244898-0.06966-0.278639 0.557279-4.458231 1.532517-9.195102 0.975238-4.736871 2.229116-12.399456 2.856055-16.997007 0.626939-4.597551 1.253878-9.055782 1.393197-9.82204 0.278639-1.393197 0.905578-1.532517 9.891701-1.950477 11.981497-0.626939 21.106939-1.532517 28.769523-2.925714 6.408707-1.184218 18.808163-5.01551 18.808164-5.851428 0-0.557279-13.514014-4.667211-24.102313-7.244626-8.916463-2.229116-23.266395-4.597551-27.933606-4.597551h-3.622313l-0.417959-4.040272c-2.925714-25.286531-9.404082-58.653605-10.936598-56.215511z" fill="#1e5396" p-id="8816"></path><path d="M423.880272 362.649252c-54.891973 9.613061-100.519184 28.421224-130.960544 53.916734-22.430476 18.808163-37.059048 40.96-43.119456 65.480273-4.94585 19.644082-4.597551 30.302041 1.462857 47.647346 1.323537 3.831293 3.204354 8.428844 4.109932 10.30966l1.671837 3.274014 48.552925-0.417959c26.749388-0.20898 48.692245-0.417959 48.761905-0.487619 0.06966 0-0.696599-2.925714-1.602177-6.339048-3.482993-12.747755-4.667211-22.639456-4.736871-37.268027 0-19.783401 2.577415-35.66585 8.777143-53.498776 11.911837-34.760272 34.411973-61.091701 68.475646-80.178503 6.826667-3.831293 6.826667-3.900952-1.393197-2.438095zM668.038095 438.926803c-15.53415 23.127075-19.156463 28.908844-19.086802 30.78966 0 1.184218 0.417959 6.478367 0.975238 11.633197 1.602177 16.230748 0 36.08381-4.109932 52.453877-1.114558 4.318912-1.950476 7.871565-1.880817 7.941225 0.13932 0.13932 18.947483 0.766259 41.935238 1.462857 30.998639 0.975238 41.935238 1.114558 42.631837 0.557279 1.393197-1.323537 8.289524-17.972245 11.006259-26.679728 3.343673-10.797279 3.761633-17.554286 1.741496-29.396463-3.970612-23.336054-13.931973-42.562177-30.65034-59.280544-7.592925-7.523265-18.877823-16.509388-22.500136-17.763265-0.557279-0.20898-7.732245 9.891701-20.062041 28.281905zM586.954014 554.283537L579.570068 565.986395l3.691973 0.139319c5.22449 0.278639 154.017959 1.532517 154.226939 1.393198 0.13932-0.20898-5.851429-20.758639-6.199728-20.967619-0.20898-0.20898-127.82585-3.970612-133.39864-3.900953h-3.552653l-7.383945 11.633197zM303.229388 544.531156c-45.139592 0.20898-48.204626 0.278639-48.552925 1.462858-0.766259 2.925714-3.413333 19.644082-3.065034 19.992381 0.13932 0.20898 38.243265 0 84.567074-0.3483s90.209524-0.696599 97.52381-0.696598h13.305034l2.925714-9.961361c1.532517-5.433469 2.856054-10.10068 2.856055-10.44898 0-0.417959-22.360816-0.417959-149.559728 0zM312.772789 567.727891l-39.984762 0.348299 4.945851 5.642449c2.786395 3.134694 7.732245 8.080544 11.006258 11.006259l5.921088 5.29415h84.288436l-4.876191-7.314286c-2.647075-4.040272-5.781769-9.264762-7.035646-11.493878l-2.229116-4.179591-5.990748 0.139319c-3.274014 0.13932-24.032653 0.348299-46.04517 0.557279zM630.421769 572.395102c-1.253878 2.229116-4.249252 6.965986-6.687347 10.44898L619.27619 589.322449H692.906667l9.543401-9.822041c5.29415-5.36381 9.473741-9.891701 9.334422-10.03102-0.13932-0.06966-17.972245-0.348299-39.636463-0.626939l-39.497143-0.417959-2.229115 3.970612zM297.656599 591.899864c-28.072925 0.13932-51.06068 0.417959-51.060681 0.696599 0 0.20898-0.835918 4.94585-1.811156 10.518639-0.975238 5.503129-1.602177 10.17034-1.462857 10.30966 0.487619 0.487619 193.793741-1.184218 194.2117-1.671837 0.348299-0.417959 1.184218-3.065034 4.736871-15.673469l1.393197-4.667211-47.508027 0.13932c-26.122449 0.13932-70.495782 0.278639-98.499047 0.348299zM552.96 603.742041l-7.383946 12.399456 102.46966 0.208979c56.28517 0.06966 102.53932 0.06966 102.60898-0.06966 0.13932-0.13932-2.229116-5.712109-5.22449-12.399455l-5.503129-12.120817-89.791565-0.208979-89.721905-0.13932-7.453605 12.329796zM343.423129 615.026939l-5.22449 0.417959 2.786395 1.184218c21.315918 8.846803 32.461497 12.678095 47.368707 16.230748 11.981497 2.925714 23.962993 4.527891 32.949116 4.458231 6.548027 0 6.687347-0.06966 5.01551-1.184217-5.08517-3.482993-12.329796-9.264762-18.947483-15.116191L399.847619 614.4l-25.56517 0.13932c-14.140952 0.06966-28.003265 0.278639-30.85932 0.487619zM581.311565 623.873741c-10.17034 6.687347-19.156463 11.702857-28.908844 16.091429-7.453605 3.343673-7.523265 3.343673 6.060408 1.950476 22.221497-2.229116 43.328435-6.826667 63.947755-13.792653 8.777143-2.995374 24.729252-9.404082 24.729252-9.96136 0-0.13932-12.747755-0.278639-28.421224-0.27864h-28.351565l-9.055782 5.990748zM486.50449 769.741497c-6.687347 1.532517-10.17034 6.408707-10.5883 15.11619-0.278639 4.806531-0.06966 6.199728 1.184218 8.846803 2.925714 5.990748 10.03102 8.080544 16.648708 4.80653l2.995374-1.462857-0.487619 1.532517c-2.716735 8.637823-10.03102 16.161088-17.205987 17.484626-4.109932 0.766259-3.134694 2.020136 1.114558 1.462857 15.32517-2.020136 25.84381-17.832925 22.778776-34.133333-1.811156-9.682721-8.707483-15.39483-16.439728-13.653333z m5.363809 2.507755c3.413333 1.741497 5.01551 6.199728 5.36381 15.04653l0.348299 7.453606-2.368435 1.393197c-5.15483 3.204354-11.354558 0.975238-13.235374-4.667211-1.253878-3.482993-1.184218-13.165714 0-16.021769 1.671837-3.970612 5.851429-5.29415 9.8917-3.204353zM559.925986 769.671837c-3.413333 1.114558-5.921088 3.482993-7.453605 7.035646-2.020136 4.667211-1.532517 6.060408 0.766258 2.368435 3.274014-5.15483 9.055782-6.478367 13.792654-3.065034 3.343673 2.368435 4.388571 5.01551 4.040272 10.797279-0.278639 6.687347-2.716735 10.588299-13.235375 21.594558-4.527891 4.736871-8.219864 8.777143-8.219863 8.986123 0 0.20898 6.060408 0.417959 13.444353 0.417959h13.374694l1.323538-3.691973c2.020136-5.642449 2.020136-5.851429 0.626938-4.249252-2.438095 2.716735-4.040272 3.065034-13.514013 3.065034h-9.125442l7.871564-8.219864c8.637823-8.986122 12.260136-14.558912 12.956735-20.1317 0.696599-5.990748-1.741497-11.563537-5.990748-13.792653-2.507755-1.253878-8.219864-1.880816-10.65796-1.114558zM448.818503 772.249252c-2.786395 1.253878-5.08517 2.507755-5.08517 2.716734 0 0.20898 1.044898 0.20898 2.368436 0 1.950476-0.417959 2.507755-0.20898 3.134694 0.905579 0.487619 0.905578 0.766259 7.801905 0.766258 19.435102 0 19.574422-0.278639 21.106939-3.831292 21.106938-0.905578 0-1.880816 0.278639-2.089796 0.696599-0.278639 0.417959 2.647075 0.696599 8.289523 0.696599 5.36381 0 8.777143-0.278639 8.777143-0.696599s-0.905578-0.696599-2.089796-0.696599c-1.323537 0-2.298776-0.487619-2.786394-1.323537-0.417959-0.905578-0.696599-9.543401-0.696599-23.336054 0-17.205986-0.20898-22.012517-0.835918-21.942858-0.487619 0-3.204354 1.114558-5.921089 2.438096zM519.662585 778.10068c-2.856054 5.642449-3.900952 8.498503-3.343673 8.637823 0.487619 0.13932 2.786395 0.557279 5.01551 1.044898 8.080544 1.462857 12.887075 6.548027 13.444354 14.140953 0.20898 3.413333 0 4.94585-1.044898 6.826666-2.856054 5.29415-8.568163 6.965986-14.071293 4.179592-4.388571-2.229116-6.896327-1.671837-5.921088 1.323538 0.835918 2.647075 8.080544 3.691973 13.653333 2.020136 3.482993-0.975238 7.941224-4.806531 9.682721-8.219864 1.880816-3.691973 2.438095-9.125442 1.323537-13.096055-1.462857-5.15483-6.757007-10.10068-13.026394-11.981496l-4.94585-1.532517 1.671836-3.413334 1.741497-3.413333h13.862313l1.114558-2.089796c0.557279-1.114558 1.044898-2.159456 1.044898-2.438095 0-0.20898-3.622313-0.348299-8.010885-0.348299H523.842177l-4.179592 8.359183zM178.886531 201.108027c-4.527891 4.527891-8.568163 8.219864-9.055783 8.219864-0.487619 0-1.323537-0.835918-1.811156-1.950476-0.487619-1.044898-1.671837-2.438095-2.647075-3.065034-2.438095-1.602177-6.478367-0.278639-8.846803 2.856054-1.044898 1.253878-2.577415 2.507755-3.552653 2.786395-2.020136 0.487619-3.900952 4.736871-4.109932 9.473741-0.13932 3.761633 0.766259 4.179592 6.199728 2.438096 5.921088-1.880816 7.732245 0.06966 5.781769 5.990748-1.323537 3.900952-9.125442 16.857687-11.215238 18.599184-4.318912 3.622313-1.393197 10.588299 4.458231 10.727619 3.134694 0.13932 5.642449-2.925714 4.667211-5.572789-1.044898-2.786395-0.20898-5.990748 2.507755-9.195102 1.602177-1.950476 2.507755-3.831293 2.856054-6.130068 0.487619-3.482993 4.527891-12.260136 8.150205-17.484626 3.761633-5.642449 10.866939-13.792653 15.11619-17.484626 3.274014-2.786395 4.179592-4.040272 4.179592-5.572789 0-1.950476-1.044898-2.786395-3.343674-2.786395-0.557279 0-4.806531 3.691973-9.334421 8.150204zM853.820952 205.635918c-2.020136 1.532517-4.667211 5.642449-5.433469 8.428844-1.044898 4.040272-6.757007 9.543401-9.822041 9.543401-2.995374 0-11.772517-5.642449-15.46449-9.8917-7.244626-8.289524-8.986122-9.264762-12.887074-7.244626-4.458231 2.368435-3.691973 5.921088 2.716734 12.538775 8.986122 9.404082 10.37932 13.165714 5.990749 16.997007-5.921088 5.15483-13.792653 4.318912-24.311293-2.716735-5.503129-3.622313-6.687347-4.179592-9.195102-3.970612-2.298776 0.20898-2.856054 0.487619-2.995374 1.880816-0.417959 2.786395 1.880816 7.453605 5.01551 10.37932 6.269388 5.781769 14.628571 7.174966 25.77415 4.318912 6.896327-1.741497 8.916463-1.741497 10.518639 0 1.253878 1.393197 1.184218 1.950476-0.557279 18.459864-1.323537 11.772517-1.671837 17.554286-1.184217 18.738503 0.348299 0.975238 1.671837 2.925714 2.995374 4.388572 1.253878 1.462857 3.274014 4.179592 4.527891 6.130068 5.01551 7.801905 9.334422 10.866939 12.538775 8.777142 0.835918-0.487619 0.696599-1.602177-0.487619-6.408707-1.462857-6.060408-5.15483-36.432109-5.15483-43.119456 0-9.404082 6.617687-13.305034 14.349932-8.359184 1.811156 1.114558 3.482993 2.577415 3.761633 3.134694 0.557279 1.462857 5.503129 3.970612 7.383946 3.691973 1.253878-0.13932 1.671837-0.975238 2.438095-4.736871 0.487619-2.438095 0.696599-4.87619 0.487619-5.433469-0.13932-0.487619-2.298776-1.811156-4.667211-2.925714-5.781769-2.577415-8.219864-4.597551-8.219864-6.617687 0-2.577415 2.438095-4.318912 7.174966-5.15483 3.413333-0.557279 4.736871-1.184218 6.269388-2.925715 1.671837-1.880816 1.950476-2.647075 1.671837-5.08517-0.487619-4.458231-3.900952-11.981497-5.851429-12.887074-2.229116-1.044898-5.921088-0.975238-7.383946 0.069659zM192.609524 212.462585c-1.880816 0.696599-7.105306 6.408707-10.727619 11.702857-3.413333 5.08517-5.781769 10.10068-6.965987 15.046531-0.487619 1.880816-1.462857 4.318912-2.229115 5.363809-0.696599 1.044898-1.323537 2.438095-1.323538 3.065034 0 1.741497 7.592925 8.916463 11.354558 10.727619 3.761633 1.811156 5.22449 1.671837 9.195102-0.975238 1.950476-1.323537 3.134694-1.741497 4.458231-1.393197 2.298776 0.557279 8.777143 5.433469 10.24 7.732245 1.044898 1.602177 1.044898 1.811156 0 2.995374-0.696599 0.766259-2.298776 1.532517-3.622312 1.811157-4.318912 0.766259-1.741497 1.741497 4.87619 1.741496 4.179592 0 6.687347 0.278639 7.314286 0.835918 1.811156 1.811156 4.040272-3.274014 3.274013-7.383945-0.626939-3.134694-7.941224-11.633197-14.210612-16.439728-4.597551-3.482993-4.87619-3.831293-4.527891-5.990748 0.557279-3.274014-0.278639-5.781769-2.507755-7.871565l-1.950476-1.811156 0.835918-7.662585c1.044898-9.961361 0.13932-12.817415-3.482993-11.493878z m-4.667211 24.589932c1.671837 1.253878 0.835918 10.518639-1.044898 11.215238-1.532517 0.626939-5.781769-1.671837-6.617687-3.413333-0.487619-1.184218-0.417959-2.159456 0.487619-3.900953 2.507755-4.94585 4.458231-5.990748 7.174966-3.900952zM219.149932 227.857415c-5.990748 1.393197-9.473741 5.22449-9.682721 10.588299l-0.13932 2.925715 8.010885 1.184217c8.916463 1.253878 10.657959 0.905578 12.469115-2.368435 1.602177-2.786395 0.13932-7.871565-3.065034-10.866939-2.577415-2.368435-3.204354-2.507755-7.592925-1.462857zM193.445442 278.987755c-1.044898 0.975238-2.577415 1.741497-3.343673 1.741497-2.020136 0-4.109932 1.253878-4.109932 2.507755 0 3.343673 6.199728 10.727619 9.055782 10.727619 1.811156 0 3.482993-1.880816 3.482993-3.831293 0-0.905578-0.626939-3.343673-1.462857-5.363809-0.835918-2.159456-1.253878-4.458231-1.044898-5.572789 0.487619-2.368435-0.06966-2.438095-2.577415-0.20898zM115.287075 308.175238c-1.044898 0.766259-1.393197 2.159456-1.671837 7.314286-0.417959 6.687347-0.975238 7.732245-4.040272 7.732245-1.741497 0-5.781769-3.134694-5.781769-4.527891 0-0.487619-0.905578-1.880816-2.020136-3.065034-2.856054-3.065034-5.990748-2.995374-9.055782 0.208979-1.811156 1.880816-2.298776 3.065034-2.577415 6.060408-0.626939 6.617687 3.691973 11.772517 9.822041 11.772517 4.94585 0 8.986122 1.671837 12.678095 5.15483 3.343673 3.274014 8.010884 5.990748 10.17034 5.990749 0.626939 0 1.323537 0.348299 1.532517 0.696598 0.626939 0.975238 6.896327 4.109932 11.424218 5.642449 6.687347 2.298776 11.145578 1.393197 16.509388-3.343673 4.806531-4.179592 10.17034-12.887075 11.075918-17.832925 1.184218-6.269388-4.597551-11.075918-9.264762-7.732245-1.880816 1.323537-3.622313 4.527891-3.622313 6.757006 0 3.274014-2.229116 9.125442-4.249252 11.145579-1.811156 1.741497-2.368435 1.950476-4.66721 1.532517-4.458231-0.766259-14.001633-5.851429-17.275647-9.125443-2.716735-2.647075-3.065034-3.413333-3.065034-6.060408 0-1.741497 0.487619-4.458231 1.044898-6.060408 1.044898-3.065034 1.393197-8.080544 0.626939-10.10068-0.487619-1.184218-3.761633-3.134694-5.36381-3.134694-0.487619 0-1.532517 0.417959-2.229115 0.975238zM928.914286 329.282177c-1.114558 0.557279-2.925714 1.880816-3.970613 2.856054-1.044898 0.975238-2.507755 1.811156-3.134693 1.880817-2.020136 0.13932-4.388571 1.114558-4.388572 1.741496 0 0.696599-3.900952 2.089796-6.060408 2.089796-0.905578 0-2.856054 0.626939-4.388571 1.393197-3.274014 1.671837-3.900952 1.741497-4.458232 0.27864-0.278639-0.696599 0.348299-1.741497 1.671837-2.925714 1.114558-1.044898 2.089796-2.229116 2.089796-2.716735 0-4.109932-16.997007-6.896327-20.897959-3.343674-3.065034 2.716735-1.462857 5.851429 5.294149 10.37932 4.458231 2.925714 12.469116 11.563537 14.210613 15.32517 0.905578 1.811156 3.134694 5.01551 4.94585 7.035646 1.880816 2.020136 3.413333 4.318912 3.413333 5.085171 0 0.766259 1.114558 2.716735 2.507755 4.388571 1.950476 2.368435 2.368435 3.343673 1.950477 4.736871-1.950476 7.174966-1.532517 12.608435 1.811156 22.360816 3.761633 11.006259 3.482993 10.588299 6.269388 10.10068 2.507755-0.417959 5.29415-3.065034 5.990748-5.572789 0.20898-0.835918-0.905578-4.109932-2.856054-8.150204-5.22449-11.215238-4.597551-11.911837 8.916462-9.334422 14.071293 2.716735 15.11619 3.065034 18.041905 5.642449 5.503129 5.01551 10.44898 1.462857 8.707483-6.199728-0.557279-2.507755-1.184218-3.482993-2.438095-3.970612-2.647075-0.975238-7.105306-4.806531-7.105306-5.990748 0-0.696599-0.417959-0.905578-1.114558-0.626939-0.626939 0.20898-1.253878 0.417959-1.393197 0.417959-0.13932 0-0.278639 0.417959-0.27864 0.975238 0 1.602177-4.109932 4.597551-6.339047 4.597551-2.577415 0-4.040272-2.159456-4.597552-6.896326-0.278639-2.786395-0.696599-3.552653-1.671836-3.552653-1.671837 0-4.667211 3.761633-5.22449 6.617687-0.20898 1.323537-0.835918 2.438095-1.323537 2.438095s-1.741497-1.741497-2.856055-3.831292c-1.114558-2.089796-2.368435-3.831293-2.856054-3.831293-0.487619 0-1.671837 1.114558-2.716735 2.438095-2.089796 2.716735-3.343673 3.065034-4.458231 1.114558-1.532517-2.925714-0.487619-5.990748 2.577415-7.592925 2.159456-1.184218 4.527891-1.044898 8.986122 0.487619 4.458231 1.602177 5.712109 1.323537 6.339048-1.253878 0.905578-3.831293 4.249252-3.900952 7.662585-0.069659 2.716735 2.995374 4.527891 3.413333 7.035646 1.671836 2.298776-1.532517 2.995374-3.831293 2.159456-6.826666-0.975238-3.482993-3.204354-4.806531-7.105306-4.249252-4.318912 0.626939-5.781769 0-7.592925-3.204354-1.462857-2.647075-1.741497-2.786395-3.970613-2.368435-4.458231 0.835918-7.383946 2.089796-7.244626 3.134694 0 0.557279 0.278639 2.089796 0.557279 3.274013 0.417959 1.880816 0.278639 2.298776-0.696598 2.298776-0.696599 0-1.532517-0.905578-1.950476-2.159456-0.766259-1.880816-1.044898-2.089796-2.925715-1.671837-6.548027 1.393197-7.732245 1.253878-9.334422-0.905578-0.766259-1.184218-1.462857-2.438095-1.462857-2.786394 0-0.905578 8.010884-2.577415 16.997007-3.691973 5.642449-0.696599 7.244626-1.114558 8.568163-2.438095 1.880816-1.880816 2.020136-3.065034 0.557279-5.851429-1.253878-2.368435-3.343673-2.716735-5.781768-0.975238-0.905578 0.626939-6.548027 2.716735-12.538776 4.736871-11.145578 3.761633-13.514014 3.970612-14.489252 1.532517-0.975238-2.507755 0.975238-3.691973 10.30966-6.339048 5.08517-1.393197 9.891701-2.925714 10.657959-3.274014 2.995374-1.532517 8.010884-7.314286 8.010885-9.264761 0-0.766259-4.597551-0.20898-6.617687 0.835918z" fill="#1e5396" p-id="8817"></path><path d="M875.34585 348.29932c-0.975238 1.184218-1.811156 2.577415-1.811156 3.065034 0 0.487619 1.044898 2.995374 2.368435 5.503129 2.577415 4.94585 4.249252 11.493878 3.622313 14.140952-0.487619 1.741497-4.040272 3.970612-7.871564 4.806531-1.950476 0.417959-2.577415 0.13932-4.318912-1.602177-2.438095-2.438095-3.831293-7.035646-3.343673-11.284898 0.417959-3.831293 0.06966-4.87619-1.671837-4.87619-3.274014 0-11.772517 11.493878-11.772517 15.952109 0 1.880816 2.159456 3.831293 7.523265 6.826666 4.388571 2.438095 4.527891 2.507755 10.51864 2.089796 3.343673-0.20898 8.289524-0.905578 11.145578-1.602177 3.552653-0.835918 5.433469-1.044898 6.199728-0.557279 0.626939 0.417959 2.159456 2.577415 3.413333 4.876191 1.811156 3.204354 2.298776 4.667211 2.020136 6.478367-0.417959 2.856054 0.487619 4.249252 2.716735 4.249252 1.811156 0 4.527891-2.995374 4.527891-4.876191 0-0.696599-1.393197-3.900952-3.134694-7.174966-3.413333-6.408707-3.761633-8.150204-2.020136-9.82204 2.716735-2.716735 8.498503-0.417959 11.424218 4.527891 2.298776 3.831293 4.736871 6.339048 5.781768 5.990748 1.253878-0.417959 1.880816-6.060408 0.835919-8.498503-0.487619-1.184218-2.438095-4.040272-4.388572-6.339048-3.482993-4.179592-7.105306-10.657959-7.105306-12.817415 0-1.602177-2.647075-5.572789-3.691973-5.572789-1.532517 0-3.274014 2.368435-3.274013 4.388571 0 1.184218 0.905578 2.925714 2.438095 4.597551 1.323537 1.462857 2.507755 3.413333 2.577415 4.318912 0.20898 1.532517-0.20898 1.741497-4.318912 2.577415-3.274014 0.626939-5.01551 0.696599-6.130068 0.13932-2.229116-0.975238-4.109932-5.642449-4.94585-12.120817-1.044898-8.498503-3.900952-11.424218-7.314286-7.383945zM93.831837 353.872109c-5.29415 1.602177-9.752381 7.871565-10.657959 15.11619-0.417959 3.274014-0.278639 3.761633 1.393197 5.43347 1.741497 1.741497 2.089796 1.811156 8.080544 1.602177 5.990748-0.20898 6.269388-0.13932 8.150204 1.741496 1.880816 1.880816 1.950476 2.159456 1.950476 9.404082 0 4.109932 0.278639 7.871565 0.557279 8.289524 0.348299 0.487619 1.393197 0.905578 2.368436 0.905578 1.671837 0 2.925714-1.114558 8.846802-7.871565 1.393197-1.532517 2.298776-1.880816 4.736871-1.880816 4.806531 0 9.264762 3.622313 12.538776 10.10068 2.716735 5.22449 3.413333 12.469116 1.671836 16.648708-0.626939 1.462857-1.114558 4.109932-1.114558 5.851428 0 3.065034 0.06966 3.134694 1.323538 1.950476 0.835918-0.766259 2.298776-1.184218 4.040272-1.114557 4.318912 0.20898 5.01551 0.06966 6.478367-1.393198 2.995374-2.995374 1.462857-11.911837-3.900952-22.291156-2.507755-4.87619-3.134694-6.687347-3.274014-10.44898-0.13932-2.507755-0.626939-5.22449-1.044898-6.060408-1.184218-2.159456-31.068299-25.286531-33.715374-26.052789-2.716735-0.766259-5.712109-0.696599-8.428843 0.06966zM898.403265 620.530068c-0.626939 0.905578-3.274014 9.752381-3.274013 10.727619 0 1.393197 1.323537 0.348299 2.020136-1.532517 0.348299-1.184218 1.114558-2.089796 1.602177-2.089796 0.975238 0 12.887075 11.633197 12.329796 12.051157-0.348299 0.278639-16.021769 3.970612-16.857688 3.970612-0.348299 0-0.487619-1.044898-0.348299-2.298776 0.13932-1.184218-0.06966-2.229116-0.487619-2.298775-0.766259 0-4.527891 11.981497-3.970612 12.608435 0.20898 0.20898 1.044898-0.417959 1.811156-1.393197 1.253878-1.462857 3.204354-2.229116 11.702857-4.249252l10.170341-2.507755 5.15483 1.602177c4.806531 1.602177 5.08517 1.811156 5.294149 3.900952 0.348299 3.691973 1.253878 2.716735 2.925714-3.204353 1.741497-6.130068 1.602177-8.707483-0.278639-5.15483-0.626939 1.253878-1.323537 2.298776-1.602177 2.298775-0.20898 0-2.647075-0.626939-5.363809-1.462857-4.667211-1.393197-5.29415-1.811156-12.399456-8.846803-6.757007-6.687347-7.453605-7.592925-7.662585-10.17034-0.13932-1.811156-0.417959-2.507755-0.766259-1.950476zM124.830476 636.133878l0.20898 2.298775-12.887075 4.318912c-7.105306 2.298776-13.583673 4.318912-14.419592 4.318911-1.044898 0.06966-1.880816-0.557279-2.507755-1.741496-0.557279-1.044898-1.184218-1.602177-1.393197-1.184218-0.557279 0.835918 4.527891 16.857687 6.130068 19.295782 3.343673 5.01551 11.842177 5.22449 15.25551 0.27864 0.626939-0.835918 1.114558-2.786395 1.114558-4.249252v-2.716735l2.089796 1.741497c4.109932 3.482993 9.473741 2.786395 12.051156-1.532517 1.671837-2.856054 1.462857-4.87619-1.462857-14.280272-2.577415-8.219864-4.527891-11.354558-4.179592-6.548027z m3.691973 10.588299c1.602177 5.433469 0.487619 7.801905-4.597551 9.404082-4.806531 1.532517-8.080544-1.184218-9.334422-7.732245l-0.417959-2.368436 4.388571-1.462857c2.438095-0.835918 5.36381-1.532517 6.617688-1.532517 2.159456-0.06966 2.298776 0.13932 3.343673 3.691973z m-14.698231 5.433469c1.253878 4.388571 1.253878 4.736871 0.139319 6.408708-1.741497 2.716735-4.318912 4.109932-7.732244 4.179592-3.761633 0.06966-6.130068-1.880816-7.314286-6.199728-1.323537-4.736871-0.975238-5.22449 5.22449-7.383946 7.801905-2.716735 8.080544-2.577415 9.682721 2.995374zM869.703401 692.906667c-2.647075 6.757007-4.87619 12.538776-4.87619 12.887074 0 0.696599 6.687347 4.87619 7.105306 4.458232 0.20898-0.13932-0.487619-1.671837-1.462857-3.413334-2.647075-4.458231-2.159456-10.24 0.835918-10.24 0.626939 0 6.965986 2.368435 14.071293 5.15483l12.887075 5.15483-0.20898 3.065034c-0.13932 2.577415-0.06966 2.856054 0.766258 1.950477 0.557279-0.557279 1.323537-2.020136 1.741497-3.134694 0.348299-1.184218 1.323537-3.761633 2.159456-5.781769 1.114558-2.786395 1.253878-3.622313 0.487619-3.622313-0.557279 0-1.114558 0.626939-1.323537 1.393197-0.626939 2.507755-2.507755 2.298776-11.145579-1.044898-18.529524-7.105306-18.738503-7.244626-18.250884-9.334421 0.696599-2.786395 3.831293-5.642449 7.105306-6.478368 3.970612-0.975238 4.318912-1.811156 1.114558-2.298775-1.462857-0.278639-3.413333-0.557279-4.388572-0.766259-1.671837-0.278639-1.950476 0.20898-6.617687 12.051157zM145.240816 690.816871c0.278639 0.696599 0.626939 1.741497 0.835919 2.368435 0.20898 0.766259-2.995374 3.482993-10.866939 9.195102-6.199728 4.458231-11.772517 8.150204-12.399456 8.150204-0.626939 0-1.671837-0.487619-2.368435-1.114558-0.626939-0.557279-1.323537-0.835918-1.532517-0.487619-0.20898 0.348299 2.438095 4.527891 5.921088 9.264762 3.413333 4.806531 6.687347 9.334422 7.244626 10.031021 0.905578 1.323537 0.975238 1.323537 4.458231-0.27864 1.950476-0.905578 3.900952-2.089796 4.388572-2.647075 0.696599-0.905578 0.417959-0.975238-1.950476-0.626938-4.806531 0.766259-7.662585-0.487619-10.866939-4.736871-1.602177-2.089796-2.716735-4.249252-2.507755-4.806531 0.20898-0.487619 2.856054-2.647075 5.851428-4.80653l5.43347-3.900953 1.880816 2.229116c2.438095 2.786395 2.438095 5.01551 0.20898 6.478367-1.880816 1.184218-2.368435 2.786395-0.766259 2.159456 2.229116-0.905578 10.866939-7.592925 10.44898-8.219864-0.20898-0.348299-1.044898-0.20898-1.880817 0.417959-2.438095 1.671837-4.318912 1.253878-6.408707-1.462857-1.044898-1.393197-1.602177-2.716735-1.323538-3.065034 2.159456-1.950476 9.682721-6.965986 10.44898-6.965986 1.323537 0 5.15483 5.921088 5.572789 8.568163 0.20898 1.253878-0.13932 3.622313-0.696598 5.29415-0.626939 1.671837-0.975238 3.204354-0.766259 3.413333 0.487619 0.487619 6.269388-4.94585 6.269388-5.921088 0-1.184218-13.514014-19.713741-14.349932-19.713742-0.487619 0-0.557279 0.487619-0.27864 1.184218zM836.823946 734.423946c-0.417959 0.417959-1.880816 2.995374-3.343674 5.572789-2.577415 4.736871-2.786395 7.244626-0.348299 3.970612l1.323537-1.741497 3.691973 1.880817c7.105306 3.622313 22.500136 12.817415 22.430476 13.514013-0.06966 0.348299-0.348299 1.323537-0.626939 2.159456-0.975238 3.343673 1.044898 1.393197 3.761633-3.552653 3.274014-5.851429 3.691973-7.941224 1.114558-5.08517-1.741497 1.880816-1.811156 1.880816-4.040272 0.766258-7.035646-3.622313-22.918095-13.096054-23.266395-13.862312-0.13932-0.557279 0-1.602177 0.417959-2.368436 0.835918-1.532517-0.06966-2.647075-1.114557-1.253877zM176.239456 743.897687c0 0.417959 0.348299 0.905578 0.696598 1.114558 2.089796 1.253878 0.13932 3.413333-10.727619 11.772517-6.269388 4.806531-11.702857 8.777143-11.981496 8.777143-0.278639 0-1.114558-0.487619-1.811157-1.184218-2.786395-2.507755-1.950476 0.06966 1.602177 4.667211 3.482993 4.597551 5.572789 6.339048 4.458231 3.622313-1.393197-3.134694-0.766259-3.831293 9.404082-11.842177 12.051156-9.404082 12.747755-9.822041 14.489252-8.289524 0.696599 0.696599 1.532517 1.184218 1.741496 1.184218 1.044898 0 0.278639-1.462857-3.065034-5.851429-3.343673-4.318912-4.806531-5.503129-4.80653-3.970612zM204.103401 777.334422c0 0.348299 0.487619 0.975238 1.044898 1.462857 0.626939 0.487619 1.044898 1.462857 0.905579 2.159456-0.348299 1.880816-18.041905 20.828299-19.435102 20.828299-0.696599 0-1.462857-0.348299-1.671837-0.696599-0.487619-0.835918-2.647075-0.975238-2.298776-0.139319 0.417959 1.114558 8.986122 8.707483 9.334422 8.289523 0.20898-0.20898-0.13932-1.184218-0.766258-2.159455-1.184218-1.741497-1.114558-1.880816 0.905578-4.388572 1.184218-1.462857 3.343673-3.900952 4.94585-5.363809l2.786395-2.716735 4.73687 4.179592c8.080544 7.244626 7.941224 6.130068 1.950477 12.051156-4.806531 4.806531-5.36381 5.15483-6.687347 4.318912-3.274014-2.089796-2.089796 0.278639 2.089796 4.109932 4.388571 4.040272 6.965986 5.01551 4.249251 1.532517-0.766259-0.975238-1.114558-2.159456-0.835918-2.647075 1.532517-2.577415 18.738503-20.54966 19.713741-20.54966 0.626939 0 1.532517 0.487619 2.020136 1.044898 0.487619 0.557279 1.184218 0.835918 1.532517 0.626939 0.766259-0.487619-1.950476-3.552653-5.921088-6.687347-2.786395-2.229116-4.318912-2.159456-2.298775 0.06966 1.184218 1.323537 1.184218 1.462857-0.13932 3.343673-0.766259 1.044898-2.856054 3.343673-4.597551 5.015511l-3.134694 3.065034-5.433469-5.085171c-2.995374-2.856054-5.503129-5.503129-5.642449-5.921088-0.06966-0.348299 1.880816-2.716735 4.318911-5.15483 4.318912-4.318912 4.597551-4.458231 5.851429-3.343673 0.696599 0.626939 1.532517 1.184218 1.741496 1.184217 1.253878 0 0.13932-1.602177-3.482993-5.15483-3.761633-3.622313-5.781769-4.736871-5.781769-3.274013zM805.964626 778.588299c0 0.696599-0.975238 1.811156-2.089796 2.438096-6.896327 3.900952-6.269388 14.698231 0.975238 17.136326 3.413333 1.114558 5.642449 0.417959 11.702857-3.482993 5.642449-3.622313 7.453605-4.179592 10.10068-2.856055 3.691973 1.741497 4.667211 5.921088 2.298776 9.752381-2.089796 3.482993-4.458231 4.667211-9.891701 4.876191-2.577415 0.06966-4.806531 0.348299-4.94585 0.626939-0.06966 0.278639 2.229116 1.184218 5.08517 2.020136l5.22449 1.532517 0.348299-1.462857c0.20898-0.835918 1.811156-2.856054 3.622313-4.527892 5.503129-5.01551 5.990748-11.633197 1.253878-15.673469-4.318912-3.552653-7.174966-3.134694-15.952109 2.368435-5.642449 3.482993-8.289524 3.691973-10.797279 0.626939-3.274014-3.900952-1.811156-8.080544 3.482993-10.10068 1.950476-0.766259 4.179592-1.044898 6.199728-0.766259 4.179592 0.417959 3.761633-0.766259-0.766259-2.368435-4.458231-1.602177-5.851429-1.602177-5.851428-0.13932zM769.811156 817.737143c-3.622313 1.950476-16.091429 13.514014-15.394829 14.280272 0.417959 0.417959 1.184218 0.20898 1.950476-0.487619 0.696599-0.626939 1.671837-1.184218 2.089796-1.184218 0.975238 0 20.34068 20.758639 20.34068 21.803538 0 0.417959-0.487619 1.323537-1.184218 2.020136-1.950476 2.229116-0.417959 2.229116 2.368436 0 3.761633-2.995374 6.826667-6.339048 6.269387-6.896327-0.278639-0.20898-1.044898 0.06966-1.741496 0.696599-0.696599 0.696599-1.602177 1.184218-2.020136 1.184217-0.417959 0-2.995374-2.438095-5.712109-5.503129l-4.876191-5.433469 1.602177-1.532517 1.671837-1.532517 9.822041 2.577415 9.752381 2.577415 2.786394-2.368436c1.532517-1.323537 2.786395-2.786395 2.786395-3.274013 0.06966-1.253878-0.696599-1.044898-2.507755 0.696598l-1.671837 1.532517-6.408707-1.671836c-3.552653-0.905578-7.453605-1.880816-8.707483-2.229116l-2.229116-0.626939 1.741497-2.995374c0.975238-1.602177 1.741497-3.900952 1.741496-5.08517 0-3.691973-4.597551-7.941224-8.498503-7.871565-0.905578 0.06966-2.647075 0.626939-3.970613 1.323538z m5.36381 3.552653c2.298776 1.393197 3.622313 3.761633 3.622313 6.339048 0 0.766259-1.811156 3.274014-3.970612 5.572789l-3.970613 4.179591-3.343673-3.691972c-5.921088-6.478367-5.921088-6.548027-3.622313-9.055783 2.577415-2.716735 5.781769-4.736871 7.592925-4.73687 0.766259 0 2.438095 0.626939 3.691973 1.393197zM249.382313 841.839456c-8.289524 6.687347-13.931973 10.797279-14.558912 10.588299-0.626939-0.20898-1.671837-0.557279-2.298775-0.835918-0.696599-0.278639-1.253878-0.20898-1.253878 0.208979 0 0.835918 9.055782 6.617687 9.613062 6.060408 0.20898-0.20898-0.278639-1.044898-1.114558-1.950476-0.835918-0.905578-1.532517-1.880816-1.532517-2.298775 0.06966-0.696599 7.174966-6.548027 8.010884-6.548027 0.975238 0 9.404082 5.712109 9.404082 6.339047 0 1.323537-1.602177 8.010884-2.229116 9.195102-0.487619 0.975238-0.905578 1.044898-2.020136 0.487619-0.766259-0.417959-1.671837-0.557279-2.089796-0.278639-0.766259 0.417959 7.871565 6.548027 9.264762 6.548027 0.835918 0 0.626939-0.835918-0.417959-2.298775-0.557279-0.696599-0.835918-1.811156-0.696599-2.438096 3.622313-16.439728 6.548027-32.461497 6.060408-32.949115-0.417959-0.417959-5.712109 3.343673-14.140952 10.17034z m9.752381-4.388572c0 0.487619-0.278639 2.020136-0.626939 3.343674s-1.044898 4.249252-1.462857 6.408707l-0.766259 3.900953-4.109932-2.507755c-2.298776-1.393197-4.109932-2.856054-3.970612-3.134694 0.20898-0.696599 9.752381-8.707483 10.44898-8.777143 0.278639-0.06966 0.487619 0.348299 0.487619 0.766258zM712.899048 855.771429c-8.637823 5.990748-12.329796 9.055782-9.055783 7.801904 0.626939-0.278639 1.532517-0.626939 2.020136-0.835918 0.417959-0.20898 1.184218-0.06966 1.602177 0.20898 0.417959 0.278639 4.318912 5.712109 8.637823 12.120816l7.941225 11.702857-1.671837 1.741497c-3.482993 3.691973-0.417959 2.298776 9.682721-4.458232l10.51864-7.035646-2.229116-4.388571-2.298775-4.318912-0.3483 4.179592c-0.20898 2.298776-0.766259 4.87619-1.253877 5.712109-1.044898 1.811156-6.548027 5.781769-8.080545 5.781768-0.905578 0-7.523265-8.777143-8.498503-11.354557-0.20898-0.626939 0.835918-1.602177 2.856054-2.647075l3.204354-1.671837 1.741497 1.950476c3.482993 4.040272 2.925714 1.323537-0.835919-4.249251-4.040272-6.060408-5.22449-6.896327-3.691972-2.577415 1.044898 2.925714 0.626939 3.970612-2.647075 5.990748l-2.229116 1.393197-3.482993-5.22449c-1.950476-2.856054-3.552653-5.572789-3.552653-5.921088 0-1.114558 6.130068-5.01551 8.568163-5.36381 1.253878-0.20898 3.622313 0.13932 5.29415 0.696599 1.671837 0.626939 3.204354 0.975238 3.413333 0.766259 0.417959-0.417959-4.597551-6.617687-5.363809-6.617688-0.278639 0-4.87619 2.995374-10.24 6.617688zM300.234014 860.02068c0 0.348299 0.835918 1.253878 1.880816 2.089796l1.950476 1.532517-3.761633 9.264762c-2.089796 5.15483-4.667211 11.284898-5.781768 13.722993-1.880816 4.318912-2.020136 4.388571-4.109932 3.970613-3.622313-0.835918-2.089796 0.975238 2.507755 2.856054 2.229116 0.905578 4.318912 1.671837 4.667211 1.671837 1.184218 0 0.487619-1.184218-1.184218-1.950476-0.975238-0.417959-1.741497-1.184218-1.741497-1.671837 0-0.975238 9.891701-25.70449 10.170341-25.425851 0.13932 0.06966 1.811156 7.523265 3.691972 16.509388 3.831293 17.832925 4.597551 20.131701 5.781769 18.947483 0.417959-0.417959 3.343673-6.965986 6.478367-14.558911l5.712109-13.792653 2.507755 0.139319c1.393197 0.06966 2.577415-0.06966 2.577415-0.417959 0-0.626939-8.150204-4.249252-9.543401-4.249252-1.532517 0-0.975238 1.114558 0.835918 1.950477 0.975238 0.417959 1.741497 1.253878 1.741497 1.811156 0 1.811156-8.568163 22.082177-9.125442 21.524898-0.348299-0.487619-6.896327-29.117823-6.896327-30.441361 0-0.487619-4.527891-2.786395-6.757007-3.482993-0.905578-0.278639-1.602177-0.278639-1.602176 0zM672.217687 879.595102c-2.089796 0.975238-4.597551 2.020136-5.503129 2.368435-1.184218 0.487619-1.462857 0.905578-0.975238 1.393198 0.557279 0.557279 1.184218 0.487619 2.298775-0.06966 0.975238-0.557279 1.811156-0.557279 2.229116-0.13932 0.557279 0.557279 3.413333 25.84381 2.995374 26.401089-0.13932 0.278639-18.041905-19.156463-18.320544-19.853062-0.06966-0.348299 0.766259-1.044898 1.950476-1.532517 2.438095-0.975238 2.856054-2.438095 0.487619-1.811156-2.995374 0.696599-10.936599 4.597551-10.936599 5.29415 0 0.417959 0.766259 0.557279 1.671837 0.278639 0.975238-0.20898 2.159456-0.13932 2.647075 0.20898 0.557279 0.278639 5.921088 5.781769 11.981497 12.190476 6.060408 6.478367 11.424218 11.702857 12.051156 11.702857 0.905578 0 1.044898-0.626939 0.696599-3.343674-0.278639-1.811156-0.975238-9.473741-1.602177-17.136326-1.323537-15.046531-1.532517-13.862313 2.229115-16.161089 2.647075-1.602177-0.278639-1.462857-3.900952 0.20898zM368.361361 894.641633c-4.736871 2.856054-7.941224 8.637823-8.637824 15.673469-0.766259 6.896327 1.671837 11.981497 7.244626 15.25551 2.507755 1.462857 3.900952 1.811156 7.662585 1.741497 2.577415-0.06966 5.01551 0.278639 5.572789 0.696598 1.253878 1.114558 1.671837 0.278639 3.204354-6.060408 1.184218-5.01551 1.323537-5.22449 3.274014-5.224489 2.995374 0 2.438095-1.253878-0.905578-2.089796-1.671837-0.417959-4.109932-1.044898-5.43347-1.462858-1.323537-0.348299-2.995374-0.626939-3.622313-0.626938-2.020136 0-1.393197 1.253878 0.835919 1.741496 2.716735 0.626939 2.995374 1.253878 2.438095 5.01551-0.905578 6.130068-6.269388 8.428844-11.563538 4.876191-4.597551-3.065034-6.060408-9.891701-3.761632-17.693605 3.761633-12.747755 15.673469-15.46449 21.246258-4.876191 0.975238 1.811156 1.950476 3.274014 2.298776 3.274014 0.557279 0 0.696599-7.105306 0.06966-8.637823-0.278639-0.696599-0.975238-0.975238-1.950477-0.696599-0.835918 0.20898-2.925714-0.278639-4.597551-1.044898-4.318912-1.950476-10.03102-1.950476-13.374693 0.13932zM606.946395 903.976054c-4.806531 1.114558-5.642449 2.089796-2.089796 2.438096l2.229115 0.208979 2.925715 12.887075c3.413333 15.046531 3.552653 16.439728 1.602176 17.066667-1.950476 0.626939-1.741497 1.950476 0.20898 1.532517 0.835918-0.20898 3.482993-0.766259 5.921088-1.253878 2.786395-0.487619 4.318912-1.114558 4.318912-1.741496 0-0.696599-0.487619-0.905578-1.602177-0.626939-0.975238 0.278639-1.950476 0.06966-2.368435-0.487619-0.696599-0.835918-6.478367-25.84381-6.478368-28.072925 0-0.557279 0.766259-1.184218 1.741497-1.462858 0.975238-0.20898 1.741497-0.696599 1.741497-1.044897 0-0.835918-2.995374-0.626939-8.150204 0.557278zM565.847075 910.942041c-3.691973 0.278639-5.29415 1.602177-1.950476 1.602177 1.184218 0 2.020136 0.557279 2.438095 1.532517 0.487619 1.253878 2.229116 23.545034 1.811156 24.032653-0.06966 0.06966-4.736871-5.642449-10.379319-12.747755L547.526531 912.544218h-4.249252c-2.925714 0-4.109932 0.278639-3.970612 0.835918 0.13932 0.417959 0.975238 0.835918 1.811156 0.905578 0.905578 0.06966 1.880816 0.417959 2.229116 0.766259 0.835918 0.835918 2.507755 27.376327 1.880816 29.048163-0.20898 0.626939-1.114558 1.184218-1.880816 1.184218s-1.393197 0.348299-1.393198 0.696598c0 0.487619 1.880816 0.696599 5.085171 0.557279 5.08517-0.20898 6.896327-1.393197 2.786394-1.811156-1.253878-0.13932-2.298776-0.278639-2.298775-0.348299-0.20898-1.114558-1.950476-27.306667-1.811157-27.445987 0.06966-0.13932 5.29415 6.199728 11.493878 14.071293 6.199728 7.871565 11.563537 14.280272 11.911836 14.280272 1.044898 0 1.044898-1.253878 0.20898-13.792653-1.253878-18.808163-1.253878-18.808163 0.835918-19.086803 0.975238-0.13932 1.880816-0.557279 1.950477-0.905578 0.13932-0.835918-1.184218-0.905578-6.269388-0.557279zM493.540136 913.240816c-1.462857 0.557279-0.835918 1.044898 2.089796 1.532517 1.323537 0.20898 1.393197 0.835918 1.602177 12.399456 0.06966 6.687347 0 12.887075-0.20898 13.792653-0.905578 3.622313-7.871565 5.503129-12.190476 3.274014-3.343673-1.741497-3.691973-3.274014-4.040272-15.812789-0.348299-12.608435-0.06966-13.792653 3.065034-13.792653 0.905578 0 1.671837-0.348299 1.671837-0.696599 0-0.417959-2.786395-0.696599-6.965987-0.696599s-6.965986 0.278639-6.965986 0.696599c0 0.348299 0.905578 0.696599 1.950476 0.696599 3.413333 0 3.622313 0.766259 3.622313 13.514013 0 9.961361 0.20898 12.329796 1.253878 14.280272 2.020136 3.970612 4.458231 5.29415 9.82204 5.29415 4.109932 0 5.08517-0.278639 7.244626-1.950476 1.393197-1.044898 2.716735-2.647075 2.925715-3.482993 0.278639-0.905578 0.487619-7.383946 0.557278-14.419592l0.13932-12.887075 1.950476-0.20898c1.044898-0.13932 1.880816-0.626939 1.880817-1.253877 0-0.766259-0.975238-0.975238-3.970613-0.905578-2.229116 0-4.667211 0.278639-5.433469 0.626938z" fill="#1e5396" p-id="8818"></path></svg>