<?xml version="1.0" standalone="no"?><!DOCTYPE svg PUBLIC "-//W3C//DTD SVG 1.1//EN" "http://www.w3.org/Graphics/SVG/1.1/DTD/svg11.dtd"><svg t="1750867789552" class="icon" viewBox="0 0 1055 1024" version="1.1" xmlns="http://www.w3.org/2000/svg" p-id="10974" xmlns:xlink="http://www.w3.org/1999/xlink" width="206.0546875" height="200"><path d="M277.256004 965.219344v-280.185727h8.193291l11.954757-232.726708 222.063016-115.053669-18.621117-36.000824 5.437366 9.471941 237.890965-136.2445-10.725763-18.881811-237.642683 136.045874-5.524264-10.738177-203.019822 105.246548H214.763538l-49.097676 56.930958-47.483845-56.930958-104.27825 19.353546-6.72843 231.485301h44.2686l2.395917 48.042479h6.678773v280.185727h-8.851237L0 976.416841v47.583159h43.99549l51.344624-8.367088 0.459321 8.367088H152.693152V735.906506h32.388328v288.093494h56.90613l0.459321-8.367088 51.33221 8.367088h43.99549v-47.583159l-51.692218-11.172669z m-109.318365-598.35853a128.771225 128.771225 0 1 0-128.771225-128.858123 128.783639 128.783639 0 0 0 128.771225 128.796053zM98.791228 0v99.511244l43.449271-13.419617V43.449271H1011.747306v554.313383H319.811461l-2.271776 43.44927H1055.196576V0z m699.719471 498.31348h170.234243v63.249724H798.510699z" fill="#1296db" p-id="10975"></path></svg>